<mxfile host="65bd71144e">
    <diagram id="J0BU5uh6VnGHpy-MeXnG" name="Page-1">
        <mxGraphModel dx="1530" dy="387" grid="1" gridSize="10" guides="1" tooltips="1" connect="1" arrows="1" fold="1" page="1" pageScale="1" pageWidth="827" pageHeight="1169" math="0" shadow="0">
            <root>
                <mxCell id="0"/>
                <mxCell id="1" parent="0"/>
                <mxCell id="2" value="11" style="ellipse;shape=doubleEllipse;whiteSpace=wrap;html=1;aspect=fixed;" parent="1" vertex="1">
                    <mxGeometry x="200" y="400" width="80" height="80" as="geometry"/>
                </mxCell>
                <mxCell id="3" value="3" style="ellipse;shape=doubleEllipse;whiteSpace=wrap;html=1;aspect=fixed;" parent="1" vertex="1">
                    <mxGeometry x="194.2" y="240" width="80" height="80" as="geometry"/>
                </mxCell>
                <mxCell id="4" value="7" style="ellipse;shape=doubleEllipse;whiteSpace=wrap;html=1;aspect=fixed;" parent="1" vertex="1">
                    <mxGeometry x="190.55" y="90" width="80" height="80" as="geometry"/>
                </mxCell>
                <mxCell id="5" value="next" style="shape=singleArrow;whiteSpace=wrap;html=1;rotation=-180;direction=south;" parent="1" vertex="1">
                    <mxGeometry x="215.55" y="480" width="40" height="80" as="geometry"/>
                </mxCell>
                <mxCell id="6" value="temp" style="shape=singleArrow;whiteSpace=wrap;html=1;rotation=-180;direction=north;" parent="1" vertex="1">
                    <mxGeometry x="-339.995" y="785.6949999999999" width="40" height="83.91" as="geometry"/>
                </mxCell>
                <mxCell id="7" value="next" style="shape=singleArrow;whiteSpace=wrap;html=1;rotation=-180;direction=south;" parent="1" vertex="1">
                    <mxGeometry x="214.2" y="320" width="40" height="80" as="geometry"/>
                </mxCell>
                <mxCell id="16" value="unshift(value)" style="shape=singleArrow;whiteSpace=wrap;html=1;" parent="1" vertex="1">
                    <mxGeometry x="380.55" y="740" width="100" height="60" as="geometry"/>
                </mxCell>
                <mxCell id="17" value="shift()" style="shape=singleArrow;direction=west;whiteSpace=wrap;html=1;" parent="1" vertex="1">
                    <mxGeometry x="535.55" y="730" width="100" height="60" as="geometry"/>
                </mxCell>
                <mxCell id="18" value="22" style="ellipse;shape=doubleEllipse;whiteSpace=wrap;html=1;aspect=fixed;" parent="1" vertex="1">
                    <mxGeometry x="194.2" y="560" width="80" height="80" as="geometry"/>
                </mxCell>
                <mxCell id="23" value="temp" style="shape=singleArrow;direction=north;whiteSpace=wrap;html=1;" parent="1" vertex="1">
                    <mxGeometry x="620" y="505" width="30" height="80" as="geometry"/>
                </mxCell>
                <mxCell id="36" value="pop(value)" style="shape=singleArrow;direction=west;whiteSpace=wrap;html=1;" parent="1" vertex="1">
                    <mxGeometry x="670.55" y="710" width="100" height="60" as="geometry"/>
                </mxCell>
                <mxCell id="37" value="pop()" style="shape=singleArrow;whiteSpace=wrap;html=1;" parent="1" vertex="1">
                    <mxGeometry x="655.55" y="640" width="100" height="60" as="geometry"/>
                </mxCell>
                <mxCell id="38" value="&lt;font style=&quot;font-size: 18px&quot;&gt;47&lt;/font&gt;" style="ellipse;whiteSpace=wrap;html=1;aspect=fixed;" parent="1" vertex="1">
                    <mxGeometry x="-250" y="730" width="80" height="80" as="geometry"/>
                </mxCell>
                <mxCell id="39" value="76" style="ellipse;whiteSpace=wrap;html=1;aspect=fixed;" parent="1" vertex="1">
                    <mxGeometry x="-134.45" y="865" width="80" height="80" as="geometry"/>
                </mxCell>
                <mxCell id="40" value="&lt;font style=&quot;font-size: 18px&quot;&gt;21&lt;/font&gt;" style="ellipse;whiteSpace=wrap;html=1;aspect=fixed;" parent="1" vertex="1">
                    <mxGeometry x="-350" y="865" width="80" height="80" as="geometry"/>
                </mxCell>
                <mxCell id="41" value="&lt;font style=&quot;font-size: 18px&quot;&gt;82&lt;/font&gt;" style="ellipse;whiteSpace=wrap;html=1;aspect=fixed;" parent="1" vertex="1">
                    <mxGeometry x="-40" y="980" width="80" height="80" as="geometry"/>
                </mxCell>
                <mxCell id="42" value="&lt;font style=&quot;font-size: 18px&quot;&gt;52&lt;/font&gt;" style="ellipse;whiteSpace=wrap;html=1;aspect=fixed;" parent="1" vertex="1">
                    <mxGeometry x="-170" y="990" width="80" height="80" as="geometry"/>
                </mxCell>
                <mxCell id="43" value="&lt;font style=&quot;font-size: 18px&quot;&gt;27&lt;/font&gt;" style="ellipse;whiteSpace=wrap;html=1;aspect=fixed;" parent="1" vertex="1">
                    <mxGeometry x="-290" y="990" width="80" height="80" as="geometry"/>
                </mxCell>
                <mxCell id="44" value="&lt;font style=&quot;font-size: 18px&quot;&gt;18&lt;/font&gt;" style="ellipse;whiteSpace=wrap;html=1;aspect=fixed;" parent="1" vertex="1">
                    <mxGeometry x="-430" y="970" width="80" height="80" as="geometry"/>
                </mxCell>
                <mxCell id="45" value="" style="shape=singleArrow;direction=south;whiteSpace=wrap;html=1;rotation=30;" parent="1" vertex="1">
                    <mxGeometry x="-139.99999999999997" y="925.55" width="28.66" height="67.99" as="geometry"/>
                </mxCell>
                <mxCell id="46" value="" style="shape=singleArrow;direction=south;whiteSpace=wrap;html=1;rotation=40;" parent="1" vertex="1">
                    <mxGeometry x="-278.65999999999997" y="785.74" width="28.66" height="90" as="geometry"/>
                </mxCell>
                <mxCell id="47" value="" style="shape=singleArrow;direction=south;whiteSpace=wrap;html=1;rotation=30;" parent="1" vertex="1">
                    <mxGeometry x="-360" y="930" width="28.66" height="70" as="geometry"/>
                </mxCell>
                <mxCell id="48" value="" style="shape=singleArrow;direction=south;whiteSpace=wrap;html=1;rotation=-45;" parent="1" vertex="1">
                    <mxGeometry x="-160" y="779.57" width="31.35" height="96.17" as="geometry"/>
                </mxCell>
                <mxCell id="50" value="" style="shape=singleArrow;direction=south;whiteSpace=wrap;html=1;rotation=-30;arrowWidth=0.43163050774708744;arrowSize=0.16050179807502;" parent="1" vertex="1">
                    <mxGeometry x="-280" y="930" width="22.09" height="63.54" as="geometry"/>
                </mxCell>
                <mxCell id="51" value="" style="shape=singleArrow;direction=south;whiteSpace=wrap;html=1;rotation=-45;" parent="1" vertex="1">
                    <mxGeometry x="-60.12999999999997" y="924.03" width="31.35" height="69.51" as="geometry"/>
                </mxCell>
                <mxCell id="52" value="Binary Search Tree" style="text;html=1;align=center;verticalAlign=middle;resizable=0;points=[];autosize=1;strokeColor=none;fillColor=none;fontSize=18;" parent="1" vertex="1">
                    <mxGeometry x="380.55" y="865" width="170" height="30" as="geometry"/>
                </mxCell>
                <mxCell id="53" value="Linked List" style="text;html=1;align=center;verticalAlign=middle;resizable=0;points=[];autosize=1;strokeColor=none;fillColor=none;fontSize=18;" parent="1" vertex="1">
                    <mxGeometry x="408.21" y="570" width="100" height="30" as="geometry"/>
                </mxCell>
                <mxCell id="56" value="null" style="text;html=1;align=center;verticalAlign=middle;resizable=0;points=[];autosize=1;strokeColor=none;fillColor=none;" parent="1" vertex="1">
                    <mxGeometry x="750" y="435" width="30" height="20" as="geometry"/>
                </mxCell>
                <mxCell id="59" value="next" style="shape=singleArrow;whiteSpace=wrap;html=1;rotation=0;arrowWidth=0.3244804382324219;arrowSize=0.14232971884987572;direction=north;" parent="1" vertex="1">
                    <mxGeometry x="214.2" y="640" width="40" height="70" as="geometry"/>
                </mxCell>
                <mxCell id="61" value="next" style="shape=singleArrow;direction=south;whiteSpace=wrap;html=1;" parent="1" vertex="1">
                    <mxGeometry x="730" y="50" width="30" height="60" as="geometry"/>
                </mxCell>
                <mxCell id="79" value="next" style="html=1;shadow=0;dashed=0;align=center;verticalAlign=middle;shape=mxgraph.arrows2.arrow;dy=0.6;dx=40;notch=0;direction=north;rotation=0;" parent="1" vertex="1">
                    <mxGeometry x="215.55" y="150" width="30" height="110" as="geometry"/>
                </mxCell>
                <mxCell id="97" value="3" style="text;html=1;align=center;verticalAlign=middle;resizable=0;points=[];autosize=1;strokeColor=none;fillColor=none;" parent="1" vertex="1">
                    <mxGeometry x="450" y="300" width="20" height="20" as="geometry"/>
                </mxCell>
                <mxCell id="105" value="insert(2,500)" style="text;html=1;align=center;verticalAlign=middle;resizable=0;points=[];autosize=1;strokeColor=none;fillColor=none;" parent="1" vertex="1">
                    <mxGeometry x="-400" y="460" width="80" height="20" as="geometry"/>
                </mxCell>
                <mxCell id="112" value="11" style="ellipse;shape=doubleEllipse;whiteSpace=wrap;html=1;aspect=fixed;" parent="1" vertex="1">
                    <mxGeometry x="600" y="425" width="80" height="80" as="geometry"/>
                </mxCell>
                <mxCell id="113" value="next" style="shape=singleArrow;whiteSpace=wrap;html=1;rotation=0;arrowWidth=0.3244804382324219;arrowSize=0.14232971884987572;" parent="1" vertex="1">
                    <mxGeometry x="680" y="445" width="55" height="40" as="geometry"/>
                </mxCell>
                <mxCell id="124" value="next" style="html=1;shadow=0;dashed=0;align=center;verticalAlign=middle;shape=mxgraph.arrows2.arrow;dy=0.6;dx=40;notch=0;direction=north;rotation=0;" parent="1" vertex="1">
                    <mxGeometry x="214.20000000000002" width="30" height="110" as="geometry"/>
                </mxCell>
                <mxCell id="125" value="push(99)" style="text;html=1;align=center;verticalAlign=middle;resizable=0;points=[];autosize=1;strokeColor=none;fillColor=none;" parent="1" vertex="1">
                    <mxGeometry x="-20" y="90" width="60" height="20" as="geometry"/>
                </mxCell>
                <mxCell id="126" value="99" style="ellipse;shape=doubleEllipse;whiteSpace=wrap;html=1;aspect=fixed;" parent="1" vertex="1">
                    <mxGeometry x="-34.44999999999999" y="130" width="80" height="80" as="geometry"/>
                </mxCell>
                <mxCell id="127" value="&lt;font style=&quot;font-size: 14px&quot;&gt;Root&lt;/font&gt;" style="text;html=1;align=center;verticalAlign=middle;resizable=0;points=[];autosize=1;strokeColor=none;fillColor=none;" vertex="1" parent="1">
                    <mxGeometry x="-730" y="765.74" width="50" height="20" as="geometry"/>
                </mxCell>
                <mxCell id="128" value="&lt;font style=&quot;font-size: 14px&quot;&gt;Parent&lt;/font&gt;" style="text;html=1;align=center;verticalAlign=middle;resizable=0;points=[];autosize=1;strokeColor=none;fillColor=none;" vertex="1" parent="1">
                    <mxGeometry x="-730" y="800" width="60" height="20" as="geometry"/>
                </mxCell>
                <mxCell id="129" value="&lt;font style=&quot;font-size: 14px&quot;&gt;Child&lt;/font&gt;" style="text;html=1;align=center;verticalAlign=middle;resizable=0;points=[];autosize=1;strokeColor=none;fillColor=none;" vertex="1" parent="1">
                    <mxGeometry x="-730" y="845" width="50" height="20" as="geometry"/>
                </mxCell>
                <mxCell id="130" value="Leaf" style="text;html=1;align=center;verticalAlign=middle;resizable=0;points=[];autosize=1;strokeColor=none;fillColor=none;fontSize=14;" vertex="1" parent="1">
                    <mxGeometry x="-725" y="890" width="40" height="20" as="geometry"/>
                </mxCell>
                <mxCell id="131" value="Sibling" style="text;html=1;align=center;verticalAlign=middle;resizable=0;points=[];autosize=1;strokeColor=none;fillColor=none;fontSize=14;" vertex="1" parent="1">
                    <mxGeometry x="-730" y="930" width="60" height="20" as="geometry"/>
                </mxCell>
                <mxCell id="136" value="47" style="text;html=1;align=center;verticalAlign=middle;resizable=0;points=[];autosize=1;strokeColor=none;fillColor=none;fontSize=14;" vertex="1" parent="1">
                    <mxGeometry x="-645" y="770" width="30" height="20" as="geometry"/>
                </mxCell>
                <mxCell id="137" value="47,21,76" style="text;html=1;align=center;verticalAlign=middle;resizable=0;points=[];autosize=1;strokeColor=none;fillColor=none;fontSize=14;" vertex="1" parent="1">
                    <mxGeometry x="-645" y="810" width="70" height="20" as="geometry"/>
                </mxCell>
                <mxCell id="138" value="21,76,18,27,52,82" style="text;html=1;align=center;verticalAlign=middle;resizable=0;points=[];autosize=1;strokeColor=none;fillColor=none;fontSize=14;" vertex="1" parent="1">
                    <mxGeometry x="-670" y="849.61" width="130" height="20" as="geometry"/>
                </mxCell>
                <mxCell id="139" value="18,27,52,82" style="text;html=1;align=center;verticalAlign=middle;resizable=0;points=[];autosize=1;strokeColor=none;fillColor=none;fontSize=14;" vertex="1" parent="1">
                    <mxGeometry x="-655" y="895" width="90" height="20" as="geometry"/>
                </mxCell>
                <mxCell id="140" value="21,47 | 18,27 | 52,82" style="text;html=1;align=center;verticalAlign=middle;resizable=0;points=[];autosize=1;strokeColor=none;fillColor=none;fontSize=14;" vertex="1" parent="1">
                    <mxGeometry x="-655" y="930" width="140" height="20" as="geometry"/>
                </mxCell>
            </root>
        </mxGraphModel>
    </diagram>
</mxfile>